<svg xmlns="http://www.w3.org/2000/svg" xmlns:xlink="http://www.w3.org/1999/xlink" width="266.437" height="125.021" viewBox="0 0 266.437 125.021"><defs><clipPath id="a"><rect width="266.437" height="125.021" fill="none"/></clipPath></defs><g transform="translate(133.218 62.511)"><g transform="translate(-133.218 -62.511)" clip-path="url(#a)"><path d="M41.375,23.746A59.731,59.731,0,0,0,48,31.3c1.14,1.212,2.281,2.352,3.421,3.635a21.811,21.811,0,0,1,2.922,3.992,19.1,19.1,0,0,0-2.423-4.348c-1-1.354-2.067-2.637-3.136-3.92l-.642-.784a51.321,51.321,0,0,1-4.989-6.914,14.541,14.541,0,0,1-1.639-4.277,7.983,7.983,0,0,1,.285-4.277,11.119,11.119,0,0,1,2.21-3.706A23.023,23.023,0,0,1,47.291,7.78,35.424,35.424,0,0,1,51.5,9.918a24.662,24.662,0,0,1,2.78,1.925A20.386,20.386,0,0,1,56.7,14.195a19.815,19.815,0,0,1,2,2.709,17.89,17.89,0,0,1,1.568,3.065,21.027,21.027,0,0,1,1.212,6.843,18.176,18.176,0,0,0-.428-7.057,17.321,17.321,0,0,0-3.279-6.415A21.882,21.882,0,0,0,55.274,10.7a26.231,26.231,0,0,0-2.851-2.281,32.716,32.716,0,0,0-6.415-3.279L45.509,5h-.143l-.285.214a22.238,22.238,0,0,0-3.706,3.635A12.616,12.616,0,0,0,38.88,13.7a9.979,9.979,0,0,0,.143,5.346A16.679,16.679,0,0,0,41.3,23.675" transform="translate(-11.082 -1.436)" fill="#1a1818"/><path d="M30.319,30.09a23.807,23.807,0,0,0,2.994,3.136c2.138,1.925,4.419,3.564,6.558,5.2a42.98,42.98,0,0,1,6.272,5.417l.57.57a3.778,3.778,0,0,0-.428-.713,39.915,39.915,0,0,0-5.845-6.059c-2.067-1.853-4.205-3.635-6.13-5.631a19.316,19.316,0,0,1-2.495-3.136,8.838,8.838,0,0,1-1.354-3.35,2.067,2.067,0,0,1-.071-.428v-.428a5.844,5.844,0,0,1,.143-.855v-.428l.143-.428.143-.428.214-.428a18.461,18.461,0,0,1,2.21-3.065l.642-.642-.855.428a10.407,10.407,0,0,0-3.136,2.566l-.356.428-.285.5-.285.5-.214.57-.143.285v.285l-.143.57a1.973,1.973,0,0,1-.071.642,3.493,3.493,0,0,0,0,.642A7.983,7.983,0,0,0,30.1,30.09" transform="translate(-8.151 -5.285)" fill="#1a1818"/><path d="M58.328,5.275a18.96,18.96,0,0,1,3.208-2.067L64.6,1.853c1.212.784,2.423,1.5,3.564,2.281a14.826,14.826,0,0,1,3.279,3.208,12.331,12.331,0,0,1,1.924,4.205,16.393,16.393,0,0,1,.428,4.491,10.05,10.05,0,0,1-.143,1.568,23.808,23.808,0,0,0,.428-2.495,15.182,15.182,0,0,0-.071-3.706A12.331,12.331,0,0,0,72.3,6.771a16.821,16.821,0,0,0-3.208-3.778A18.818,18.818,0,0,0,65.1.214L64.671,0l-.356.143A20.671,20.671,0,0,0,60.894,2.21,10.763,10.763,0,0,0,58.47,4.7l-.285.428h0l-.285.5.428-.428" transform="translate(-16.63)" fill="#1a1818"/><path d="M123.992,102.534A4.633,4.633,0,0,0,125.2,106.1a4.776,4.776,0,0,0,3.493,1.354,5.916,5.916,0,0,0,3.279-1.069c1.853-1.283,2.994-3.635,2.352-5.631-1.283,4.491-5.275,4.847-6.843,2.994s-.784-5.2,3.635-6.344a5.48,5.48,0,0,0-5.774,1.924,5.773,5.773,0,0,0-1.354,3.208" transform="translate(-35.608 -27.907)" fill="#1a1818"/><path d="M244.055,82.586c.428-.927,0-1.568-.642-1.711h-.5a2.722,2.722,0,0,0-2.281,3.564,3.013,3.013,0,0,1-.713,2.922c-6.344,7.413-25.232,15.182-30.863,11.761s3.065-20.172,10.692-11.9l-.642-.784.642.784a6.487,6.487,0,0,0-.855-1.639c-2.566-3.992-6.914-2.994-10.264-.57h0l-.57.428-.143.143A16.251,16.251,0,0,0,204,90.141c-6.843,9.765-14.826,11.975-19.744,8.268A25.342,25.342,0,0,1,178.123,89v.285c-5.2,13.4-18.39,16.323-11.333,2.281h0c3.208-5.488,9.195-10.193,13.044-4.277a3.849,3.849,0,0,0-.784-2.067,4.989,4.989,0,0,0-2.352-1.711,6.7,6.7,0,0,0-2.352-.642h-1.924l-1.14.214c-3.849.428-10.264,3.992-16.893,8.91-11.119,8.411-27.157,13.258-32.5-4.205a86.531,86.531,0,0,0,19.887-24.306h0c7.769-13.4,15.681-35.425,10.478-43.836a4.491,4.491,0,0,0-1-1.283h0c-3.208-2.78-10.121-.5-15.681,5.061h0C121.03,36.968,110.694,69.969,117.323,88.43A49.06,49.06,0,0,1,99.86,97.982c-8.2,2.352-11.4-3.279-10.478-9.266h0a1.711,1.711,0,0,0-.071-1.14l-.214-.214h0c-.356-.071-1.069.214-2.21,1-23.237,15.895-38.561,12.046-57.949,3.92h.071c9.48-10.549,19.673-35.71,22.6-43.765,16.251-3.992,31.932-8.91,36.637-17.606h0c1.5-2.566,2.851-6.771.356-10.407l-.285-.428h-.071l-.642-.642c-4.419-4.205-15.61-3.279-23.379,1.925l-.214.143-.5.356h-.071c-6.843,4.7-12.046,12.83-16.465,22.167l-9.551,2.423A117.9,117.9,0,0,0,25.731,50.3a47.97,47.97,0,0,0-9.908,5.061h0l-1,.713h-.143l-.214.143c-9.266,7.342-7.2,17.463,0,17.463h1.212c6.558-.57,13.258-5.275,17.249-9.052H33l.641-.642A41.66,41.66,0,0,1,19.1,71.823l-.428.143-2.281.428c-5.2.5-7.057-2.994-5.275-7.983,3.706-8.981,21.17-11.333,32.93-14.042-6.272,14.541-11.4,30.578-18.817,40.7C6.415,83.37,0,88.288,0,94.845a6.629,6.629,0,0,0,2.067,4.633h0a7.057,7.057,0,0,0,2.21,1.426h0a10.5,10.5,0,0,0,5.2.855h.143a26.23,26.23,0,0,0,18.033-7.841h0c12.26,6.415,43.836,14.683,57.878.642,1.782,11.4,17.035,8.054,32.717-3.849a18.247,18.247,0,0,0,7.912,8.7h0a20.956,20.956,0,0,0,9.836,2.21A23.245,23.245,0,0,0,146.4,98.694h0c6.843-3.421,13.543-9.124,18.817-12.545l.713-.356a12.189,12.189,0,0,0-3.992,5.7,12.046,12.046,0,0,0-.784,4.633,6.7,6.7,0,0,0,1.426,4.134h0a4.847,4.847,0,0,0,3.279,1.924h.927c2.78-.071,6.7-1.782,10.121-7.413a12.973,12.973,0,0,0,5.7,6.13h.285c4.348,2.067,9.623,1.14,13.828-1.5A25.089,25.089,0,0,0,202,94.7a22.663,22.663,0,0,0,1.639-2.138,10.623,10.623,0,0,0-.214,1.924v.855h0v.428a6.559,6.559,0,0,0,.214.855h0l.214.642c1.14,3.635,4.277,4.918,7.7,4.918h.143c5.631-.071,11.333-2.495,14.4-4.063h.071l.285-.143a52.393,52.393,0,0,0,8.838-5.488h.143l.143-.143.428-.356c.855-.713,1.711-1.426,2.495-2.21h.214l.285-.285.214-.214.214-.214.713-.713L241.275,87l.356-.356,1-1.354.713-1.069h.071l.143-.143h.071l.143-.214.143-.214.143-.214ZM148.971,24.494h0c4.847,10.264-7.983,41.911-27.87,60.586-4.633-21.74,20.457-72.561,27.87-60.586M88.313,25.563a5.275,5.275,0,0,1-.356,1.212l-.143.285-.285.5-.356.57a15.966,15.966,0,0,1-4.134,3.992A43.388,43.388,0,0,1,72.49,37.11c-3.706,1.283-7.555,2.352-11.476,3.35l-6.7,1.639c4.205-8.767,11.333-19.459,20.1-22.239s14.327,1.925,13.9,5.7M10.977,101.118c-5.2.713-9.409-1.782-8.482-6.272,1.212-5.774,11.761-6.486,21.74-2.495a26.23,26.23,0,0,1-7.2,6.558l-2,1h-.071a16.751,16.751,0,0,1-3.992,1.14M161.159,88h0" transform="translate(0 -4.822)" fill="#1a1818"/><path d="M123.812,169.017l-.428-.285a2.851,2.851,0,0,1-.071-.855v-3.136q-.071-3.493-.071-4.918V158.9a3.992,3.992,0,0,1,.143-.927l.285-.214,1.14-.143.784-.214v-.356h-3.778l-.641,1.782-.356.927-.642,1.568-.143.356-.143.285a43.48,43.48,0,0,1-2.138,4.776l-1.14-2.566-2.78-6.13-.428-.927-.143-.214h-3.706v.428l2,.285v.285q0,.642-.143,3.279t-.285,5.56a8.269,8.269,0,0,1-.214,1.924l-.143.143c-.071.071-.071.143-.5.143a2.638,2.638,0,0,0-1.069.285v.285h2.138l3.065.143V169.3h-.713a2.993,2.993,0,0,1-1.283-.214.642.642,0,0,1-.285-.5,18.03,18.03,0,0,1-.143-2.067q0-2.994.143-5.417a15.711,15.711,0,0,1,.214-2.423,48.534,48.534,0,0,1,2.138,4.491q1.5,3.421,2.637,6.629h.214l.214-.642.784-1.924.642-1.639.5-1.354,1.426-3.421h0l.143-.356.642-1.5q.071.784.071,2.423v6.059a8.125,8.125,0,0,1-.071,1.5l-.927.356-.855.214v.285h5.774v-.356l-1.711-.356" transform="translate(-31.365 -45.065)" fill="#1a1818"/><path d="M140.855,157.2H140a.737.737,0,0,0,.071.285l.927.143a3.279,3.279,0,0,1,1.14.285l.143.285q.071.713.071,1.283v6.985a6.777,6.777,0,0,1-.214,2.495,4.078,4.078,0,0,1-1.711.356l-.428.143v.285h6.059v-.214l-.713-.143-.713-.143-.428-.214a.784.784,0,0,1-.214-.428,10.84,10.84,0,0,1-.071-1.426v-8.553a1.64,1.64,0,0,1,.143-.641l.214-.143,1.14-.214.642-.143a2.142,2.142,0,0,0,0-.285h-5.275Z" transform="translate(-40.211 -45.151)" fill="#1a1818"/><path d="M170.4,157.2h-3.35v.285l.143.143h1.069c.5.071.642.143.713.214a3.208,3.208,0,0,1,.143,1.283q0,.57.071,1.354t.071,1.069q.071,2.067.071,2.495v3.706l-.713-.927-2.352-2.566-2-2.138-1.14-1.283-.285-.356-2.067-2.281-.143-.214-.784-.784H157v.5l.784.143a1.283,1.283,0,0,1,.784.285l.214.285a12.043,12.043,0,0,1,.143,2.21v6.344a13.468,13.468,0,0,1-.143,2l-.285.285-.713.214h-.428l-.285.143v.285h4.989v-.356h-.143l-1.853-.285h-.356c0-.285-.071-.5-.071-.784v-3.208q-.071-3.35-.071-5.275v-.356l.428.356.713.784,1.354,1.5,2.78,3.065.214.214.642.713.855,1,.642.641,2.352,2.495h.713q.071-1.069.071-1.426,0-1.5-.071-3.493V161.69l-.143-3.065a.784.784,0,0,1,.214-.5l.428-.214h.641v-.285h-.927" transform="translate(-45.094 -45.151)" fill="#1a1818"/><path d="M198.259,159.352a5.631,5.631,0,0,0-1.426-1.283,7.84,7.84,0,0,0-2.138-.855,10.265,10.265,0,0,0-2.21-.214h-6.771a.428.428,0,0,0,.143.285l.5.143a2.566,2.566,0,0,1,1.212.428,1.069,1.069,0,0,1,.143.713v7.627a8.269,8.269,0,0,1-.285,2.709,2.138,2.138,0,0,1-1.069.356l-.855.214v.285h6.486l2.352-.143a8.482,8.482,0,0,0,2.352-.713,5.845,5.845,0,0,0,1.5-1.212,5.987,5.987,0,0,0,1.14-1.924,6.486,6.486,0,0,0,.428-2.281,6.629,6.629,0,0,0-.356-2.281,6.273,6.273,0,0,0-1.14-1.924m-.784,6.272a5.845,5.845,0,0,1-.641,1.283,5.345,5.345,0,0,1-1.212,1.283,5.488,5.488,0,0,1-1.711.855,6.272,6.272,0,0,1-1.924.285,4.633,4.633,0,0,1-1.5-.285,1.782,1.782,0,0,1-1-1,38.631,38.631,0,0,1-.214-5.417v-4.348a1.924,1.924,0,0,1,.071-.428l.143-.143a3.778,3.778,0,0,1,1.5-.214,9.409,9.409,0,0,1,2.78.356,5.773,5.773,0,0,1,2.21,1.212,4.776,4.776,0,0,1,1.283,1.711,6.772,6.772,0,0,1,.57,2.566,7.056,7.056,0,0,1-.285,2.138" transform="translate(-53.28 -45.093)" fill="#1a1818"/><path d="M224.95,157.314V157.1h-1l-2.994.143H214.9v.143l.143.143.784.214.784.285a.713.713,0,0,1,.143.57v8.91a9.194,9.194,0,0,1-.071,1.568l-.285.214-.713.143-.713.214v.214h1.5l1.568-.143a11.4,11.4,0,0,1,2.21.143h.143v-.143c0-.071-.071-.214-.285-.285l-1-.285-.784-.214a1,1,0,0,1-.071-.356v-4.918h4.419l.285.214a3.635,3.635,0,0,1,.5,1.426h.356l-.143-3.635a4.92,4.92,0,0,0-.071-.713h-.356l-.143.784a1.854,1.854,0,0,1-.285.642.855.855,0,0,1-.428.356,5.276,5.276,0,0,1-1.568.143h-2.709a3.135,3.135,0,0,1-.071-.642v-3.92a.431.431,0,0,1,.214-.428l.784-.143h2.709a6.13,6.13,0,0,1,2,.214.713.713,0,0,1,.428.428,4.135,4.135,0,0,1,.285,1.069.855.855,0,0,0,.071.428h.428a2.5,2.5,0,0,0,0-.285v-2.281Z" transform="translate(-61.724 -45.122)" fill="#1a1818"/><path d="M248.533,157.143h-2.281v.285a3.065,3.065,0,0,1,1.212.356.784.784,0,0,1,.285.356,9.192,9.192,0,0,1,.143,1.711l.143,2.78v2.21a6.2,6.2,0,0,1-.5,2.566,2.922,2.922,0,0,1-1.283,1.354,4.277,4.277,0,0,1-2.281.5,4.847,4.847,0,0,1-1.568-.285,2.352,2.352,0,0,1-1.069-.713,2,2,0,0,1-.57-.927,18.96,18.96,0,0,1-.143-3.35V158a.428.428,0,0,1,.214-.285,1.283,1.283,0,0,1,.713-.143h.927v-.428H237.2v.285a1.568,1.568,0,0,0,.855.143h.57l.285.143a1.425,1.425,0,0,1,.143.784v7.128a5.131,5.131,0,0,0,.356,2.138,3.279,3.279,0,0,0,.927,1.069,5.2,5.2,0,0,0,1.782.927,7.413,7.413,0,0,0,2,.214,6.843,6.843,0,0,0,1.924-.285,4.347,4.347,0,0,0,1.5-.784,3.207,3.207,0,0,0,.855-1,5.345,5.345,0,0,0,.428-1.568,20.523,20.523,0,0,0,.143-2.637v-3.849q-.071-1-.071-1.354a1,1,0,0,1,.214-.784,2.5,2.5,0,0,1,1.283-.356V157h-1.853Z" transform="translate(-68.129 -45.094)" fill="#1a1818"/><path d="M274.449,167.308l-.143.214a3.137,3.137,0,0,1-.641.713l-.927.642-.927.143h-3.778c-.071-.071-.071-.143-.071-.356v-9.979c0-.143.071-.713.214-.784l1.069-.143h1a1.711,1.711,0,0,0,.071-.356h-6.059v.285l1.568.285.428.143v10.121a2.423,2.423,0,0,1-.143.927.855.855,0,0,1-.642.214l-1.5.285a.57.57,0,0,0-.071.285h7.2l3.635.143v-.356q.143-.927.356-2.281l.143-.641h-.356a2.709,2.709,0,0,1-.5.784" transform="translate(-75.798 -45.209)" fill="#1a1818"/><path d="M300.8,157.114h-3.35v.285l.143.143h1.069c.5.071.57,0,.642.071a3.207,3.207,0,0,1,.143,1.283q0,.57.071,1.354t.071,1.069q.071,2.067.071,2.495v3.35l-.642-.642-2.352-2.566-2-2.138-1.14-1.283-.285-.356-2.067-2.281-.143-.214-.784-.784H287.4v.5l.784.143a1.568,1.568,0,0,1,.855.356l.214.285a12.19,12.19,0,0,1,.143,2.21v6.344a13.627,13.627,0,0,1-.143,2l-.285.214-.927.214h-.356l-.285.143v.285h4.989v-.356h-.143l-1.568-.214h-.356c0-.285-.071-.5-.071-.784v-3.207q-.071-3.35-.071-5.275v-.214l.214.214.713.784,1.354,1.5,2.78,3.065.214.214.641.713.855,1,.642.641,2.352,2.495h.641q.071-1.069.071-1.426,0-1.5-.071-3.493v-3.778l-.143-3.065a.784.784,0,0,1,.214-.5l.428-.214h.784V157.4h-.927" transform="translate(-82.547 -45.065)" fill="#1a1818"/><path d="M328,166.909a6.843,6.843,0,0,1-1,1.782,2.209,2.209,0,0,1-1,.57,12.332,12.332,0,0,1-2.495.143h-2.495a.927.927,0,0,1-.713-.214,2.994,2.994,0,0,1-.143-1.14v-4.134h3.849a1.354,1.354,0,0,1,.927.285,1.568,1.568,0,0,1,.57,1,3.567,3.567,0,0,0,.285.855h.214v-1.069a6.522,6.522,0,0,1-.071-1.14c0-.356,0-2,.071-2.281v-.356h-.214c-.143.071-.285.143-.285.641a2.068,2.068,0,0,1-.214.927l-.642.214h-4.49v-1.212q-.071-2.21-.071-2.352a3.207,3.207,0,0,1,.143-1.354,1.026,1.026,0,0,1,.642-.143h4.918l.356.5a7.624,7.624,0,0,1,.57,1.069l.285.641h.285q-.071-.713-.071-1.711v-.356a2.991,2.991,0,0,0,.071-.428V157.5H316.6v.214a.214.214,0,0,0,.143.143h.642a1.782,1.782,0,0,1,1.069.214,2.78,2.78,0,0,1,.143,1.14v9.623a.926.926,0,0,1-.143.57l-1.14.143H316.6v.143h11.547a.855.855,0,0,0,.143-.57,10.979,10.979,0,0,1,.143-1.426,10.625,10.625,0,0,1,.356-1.283h-.214q-.214,0-.356.428" transform="translate(-90.934 -45.237)" fill="#1a1818"/><path d="M348.756,163.394a16.538,16.538,0,0,0-2.21-1.354l-2-1.14a2.067,2.067,0,0,1-.927-1.568c0-1.14,1.069-1.924,2.423-1.924a2.78,2.78,0,0,1,2.922,2.423h.214a6.409,6.409,0,0,0,.071-.713v-1.639l-1.069-.57a5.917,5.917,0,0,0-1.711-.214,4.206,4.206,0,0,0-2.994.927,2.922,2.922,0,0,0-1.069,2.281,2.779,2.779,0,0,0,.285,1.354,4.846,4.846,0,0,0,1.212,1.354l2.21,1.283a7.912,7.912,0,0,1,2.21,1.5,2.21,2.21,0,0,1,.57,1.426c0,1.14-1.212,2.138-2.78,2.138a3.778,3.778,0,0,1-2.922-1.426,3.064,3.064,0,0,1-.428-1.354.5.5,0,0,0-.071-.214h-.285a1.712,1.712,0,0,0-.071.57,18.88,18.88,0,0,1-.143,1.925,2.427,2.427,0,0,0,0,.285.5.5,0,0,0,.143.356l.855.428a7.7,7.7,0,0,0,2.566.428,5.417,5.417,0,0,0,2.423-.5,3.493,3.493,0,0,0,1.5-1.354,3.778,3.778,0,0,0,.57-2,3.278,3.278,0,0,0-.356-1.5,3.492,3.492,0,0,0-1-1.212" transform="translate(-98.286 -45.002)" fill="#1a1818"/><path d="M370.382,164.508a3.493,3.493,0,0,0-1-1.212,16.537,16.537,0,0,0-2.21-1.354l-2-1.14a2.067,2.067,0,0,1-.927-1.568c0-1.14,1.069-1.924,2.423-1.924a2.78,2.78,0,0,1,2.922,2.423h.214a6.482,6.482,0,0,0,.071-.713V157.38l-1.069-.57a5.844,5.844,0,0,0-1.711-.214,4.205,4.205,0,0,0-2.922.927,2.923,2.923,0,0,0-1.069,2.281,2.78,2.78,0,0,0,.285,1.354,4.847,4.847,0,0,0,1.212,1.426l2.21,1.283a7.911,7.911,0,0,1,2.21,1.5,2.21,2.21,0,0,1,.57,1.426c0,1.14-1.212,2.138-2.78,2.138A3.778,3.778,0,0,1,363.9,167.5a3.064,3.064,0,0,1-.428-1.354.5.5,0,0,0-.071-.214h-.285a1.711,1.711,0,0,0-.071.57,18.663,18.663,0,0,1-.143,1.924,2.428,2.428,0,0,0,0,.285.5.5,0,0,0,.143.356l.855.428a7.7,7.7,0,0,0,2.566.428,5.418,5.418,0,0,0,2.423-.5,3.493,3.493,0,0,0,1.5-1.354,3.778,3.778,0,0,0,.57-2,3.278,3.278,0,0,0-.356-1.5" transform="translate(-104.231 -44.975)" fill="#1a1818"/></g></g></svg>