<svg id="svg2" xmlns="http://www.w3.org/2000/svg" viewBox="0 0 498.68 234.67"><defs><style>.cls-1{fill:none;}.cls-2{fill:#9c8cbc;stroke:#9c8cbc;stroke-miterlimit:10;}</style></defs><path class="cls-1" d="M498.68,228.35v6H0V.33H89.61c-.94.6-1.84,1.25-2.81,1.79-3.68,2.06-6.87,4.61-8.75,7.9,3.26-1.73,6.86-3.62,10.44-5.54a2.44,2.44,0,0,1,2.87.15c1.7,1.22,3.52,2.27,5.23,3.48,5,3.54,8.64,8.11,9.86,14.19a100.26,100.26,0,0,1,1.06,10.28,5.27,5.27,0,0,1,.06-2,24.77,24.77,0,0,0-.63-12.06C104.84,11.69,100.16,7,94.63,2.9,93.42,2,92.17,1.18,90.94.33H498.68V224.68a42.08,42.08,0,0,0-4.35-4.21c-1.76-1.3-3.84-2.16-5.74-3.29-2.74-1.63-3.07-4.34-.78-6a5.58,5.58,0,0,1,8,2.27c.18.44.39.87.59,1.3l.48-.13a18.9,18.9,0,0,1,0-2.26c.2-1.7-.56-2.51-2.17-3a11.07,11.07,0,0,0-6.17-.06,5.72,5.72,0,0,0-2.57,9.79,27.74,27.74,0,0,0,3.9,2.73,41.25,41.25,0,0,1,5.06,3.38c1.93,1.74,1.69,3.95-.3,5.56-3.25,2.64-8.47.56-9.57-2.58-.22-.62-.46-1.22-.68-1.83a19.09,19.09,0,0,0-.79,3.64c-.3,1.46.17,2.49,1.61,2.74a62,62,0,0,0,6.22.72,6,6,0,0,0,5.15-2.18C497.35,230.39,498,229.34,498.68,228.35ZM221.35,161.09c.52,1,.89,1.65,1.24,2.34A29.48,29.48,0,0,0,231,173.62c9.15,7,19.59,9,30.81,6.73a54.4,54.4,0,0,0,18.61-8.06c7.91-5.1,15.51-10.69,23.24-16.07,1.31-.91,2.65-1.78,4-2.67l.33.37c-.31.48-.61,1-1,1.45-4,5.4-6.25,11.38-4.92,18.11,1,5.28,4.14,8.73,9.88,8.7,6.71,0,11.54-3.92,15.66-8.8,1.22-1.44,2.28-3,3.57-4.74l1,1.66a24,24,0,0,0,6.15,7.29A22.17,22.17,0,0,0,354.75,182c9.4-1.07,16.58-5.87,22.59-12.81.93-1.07,1.91-2.11,3-3.36a46,46,0,0,0,.57,5c.89,3.81,2.47,7.23,6.14,9.2a19.44,19.44,0,0,0,11,2,51.85,51.85,0,0,0,12.14-2.27,97.09,97.09,0,0,0,31.07-16.63c6-4.76,11.23-10.12,15-16.86.68-1.22,1.1-2.36-.06-3.42-1-.91-2.49-.58-3.61.77a4.67,4.67,0,0,0-1,2c-.24,1.4-.12,2.87-.41,4.26-.33,1.59-.56,3.42-1.52,4.59a40.83,40.83,0,0,1-6.23,6A94.44,94.44,0,0,1,419.63,174c-7.22,2.87-14.61,5.08-22.47,4.81a12.88,12.88,0,0,1-5.93-1.66c-4-2.35-4.47-6.36-3.81-10.47a23.31,23.31,0,0,1,8.45-14.51c3.82-3.19,10.06-3.93,13.86.48.35.42.65.88,1,1.32a9.47,9.47,0,0,0-4.83-6.53c-4.14-2.34-8.31-1.36-12.21.66-5.49,2.85-9.35,7.39-12.53,12.63a44.84,44.84,0,0,1-18.46,17.1c-5.61,2.84-11,2.69-16.05-1.41a39.12,39.12,0,0,1-10.06-12.38c-1.06-2-2.05-4.08-3.08-6.12a41.25,41.25,0,0,1-14.08,19.84,12.53,12.53,0,0,1-4.27,2.1c-5.56,1.56-7.88-2-7-6.83,1.41-7.78,5.48-14.12,11.16-19.48a15.16,15.16,0,0,1,8-4.17c4-.64,6.75,1.58,9.07,4.53-1.18-3-2.86-5.41-5.94-6.68-4.3-1.76-8.62-1.22-12.81.14-8,2.6-14.71,7.71-21.6,12.37-8,5.44-15.86,11.18-24.76,15.23-7,3.17-14.13,4.57-21.85,3.31-11.88-1.94-19.35-8.67-22.77-20.06a2.34,2.34,0,0,1,.64-1.89c1.51-1.45,3.23-2.68,4.73-4.13,3.53-3.43,7.08-6.85,10.43-10.45,3-3.17,5.83-6.48,8.51-9.91A184,184,0,0,0,264.77,111a202.78,202.78,0,0,0,16-34.49c3.35-9.46,6.11-19.07,7-29.15.51-6.07.49-12-2.05-17.69-1.39-3.09-3.46-5.24-7-5.87-5.05-.91-9.51.83-13.79,3a48,48,0,0,0-14.54,11.83c-3.14,3.68-6.27,7.4-9.06,11.35-5.88,8.35-10.29,17.5-14.15,26.92a157,157,0,0,0-8.37,27.29,142.25,142.25,0,0,0-2.84,20.91A88.72,88.72,0,0,0,217,146.48c.71,3.89,1.81,7.7,2.76,11.63a99.88,99.88,0,0,1-21.87,13.51c-6.08,2.64-12.26,4.87-19.11,4.66-9.64-.28-12.75-8.52-12.15-15.38.15-1.69.6-3.35.77-5,.11-1-.41-1.51-1.45-1a20.67,20.67,0,0,0-2.76,1.45c-9.3,6.43-19.06,12.06-29.73,15.85-10.25,3.64-20.82,5.82-31.78,4.72-5.36-.54-10.72-1.19-16-2.24-9.38-1.87-18.27-5.4-27.15-8.88-1.61-.63-3.17-1.38-4.92-2.15.63-.85,1.07-1.47,1.53-2.08,2.53-3.33,5.37-6.48,7.52-10,3.86-6.42,7.56-13,10.85-19.69,3.89-8,7.4-16.15,10.87-24.33,3.66-8.62,7.07-17.35,10.58-26a2.85,2.85,0,0,1,2.19-1.72c7.72-2.06,15.48-4,23.09-6.36,6.3-2,12.5-4.36,18.58-7,8.69-3.71,16.84-8.33,23-15.78a23.94,23.94,0,0,0,5.59-13.55c.46-6-2.88-10.49-8.9-12.63-5.18-1.85-10.47-1.91-15.85-1.33a50.51,50.51,0,0,0-15.68,4.41c-9.58,4.4-17.06,11.32-23.33,19.62C97.66,55,93,63.61,88.55,72.4a2.8,2.8,0,0,1-1.62,1.3C72.54,77.49,58.09,81.05,44.38,87c-8.08,3.52-15.83,7.55-21.77,14.32-4.36,5-7,10.59-6.43,17.34a10.86,10.86,0,0,0,4.09,8c2.86,2.21,6,2.75,9.62,2.39a41.14,41.14,0,0,0,13.74-4c7.47-3.58,13.22-8.07,19.29-13.8-.81.67-1.55,1.42-2.37,2-9.06,7-18.81,12.58-30.35,14.21-3.18.45-6.4.38-9-2.07-2.9-2.67-3-6.11-2.53-9.52.95-6.22,4.61-10.88,9.44-14.67a46,46,0,0,1,15.58-7.49c10.44-3.11,21-5.86,31.52-8.72,2.67-.72,5.39-1.3,8.39-2a14.68,14.68,0,0,1-.42,1.56c-1.38,3.25-2.81,6.47-4.16,9.73-5.81,14-11.48,28.07-17.42,42a131.84,131.84,0,0,1-13.11,23.93,1.64,1.64,0,0,1-2.21.72c-5.43-1.84-10.84-3.75-16.35-5.27a41.06,41.06,0,0,0-17.23-1.12c-4,.62-7.73,2.25-9.94,5.71-4.78,7.49-2.34,17.57,7.65,20.25,4.71,1.27,9.46.75,14.12-.09a47.94,47.94,0,0,0,25.46-13.54,3,3,0,0,1,3.9-.66c4.1,1.91,8.24,3.74,12.38,5.56,13.41,5.9,27.53,8.53,42.08,9.07a92.68,92.68,0,0,0,21.42-1.68,67.6,67.6,0,0,0,24.91-9.9c1.62-1.09,3.2-2.23,5-3.51.17.88.3,1.45.39,2,.77,5.13,2.87,9.38,7.84,11.67a20.42,20.42,0,0,0,11,1.49c7.56-.77,14.44-3.45,21.16-6.74a119.1,119.1,0,0,0,17.78-10.84C218.9,162.63,220.07,161.93,221.35,161.09ZM81.16,69.44l-.14.31a19.28,19.28,0,0,0-1.59-3.22C75.25,60.93,71,55.39,66.76,49.84c-3.17-4.17-6.37-8.31-8.36-13.23-2.16-5.32-2.21-10.45.9-15.48,2.25-3.66,5.44-6.32,8.83-8.91C83.41,19,94,29.35,94.66,47.26c.12-2.13.15-4.22.12-6.32A28.29,28.29,0,0,0,91,27.23C85.28,17.3,76.3,11.42,65.85,7.51a2.58,2.58,0,0,0-2.22.35,68.32,68.32,0,0,0-7,7c-3.11,3.86-5.07,8.34-4.78,13.42a25.21,25.21,0,0,0,4.39,12.48c4.56,6.93,10.6,12.55,16.21,18.56C75.47,62.58,78.26,66.06,81.16,69.44ZM162,227.69c-.59-1-.94-1.56-1.2-2.13-2.24-4.92-4.45-9.85-6.7-14.77-.19-.42-.55-1.08-.86-1.09-2.2-.1-4.41,0-6.62,0l0,.57c.71.11,1.41.24,2.13.33,1.08.14,1.85.42,1.71,1.84-.3,3-.48,6-.66,9.06-.15,2.75-.19,5.51-.36,8.27-.08,1.4-.45,2.64-2.33,2.48-.38,0-.79.31-1.19.48l.12.29h9.53a2.93,2.93,0,0,0-1.82-.79c-2.28-.15-2.59-.43-2.6-2.79,0-3.61-.05-7.21,0-10.81,0-1.83.31-3.65.48-5.48l.52-.15,8.77,20.34c1.35-3.36,2.59-6.56,3.9-9.73s2.71-6.39,4.17-9.82c.29.48.39.57.39.66q0,8,0,16c0,1.11-.75,1.49-1.64,1.75l-1.85.57.1.3h10.18a2.49,2.49,0,0,0-1.33-.74c-2.43-.6-2.39-.59-2.44-3-.08-4.15-.25-8.29-.3-12.43,0-1.54.17-3.08.25-4.62,0-1,.53-1.31,1.49-1.36a15,15,0,0,0,2.54-.57,26.07,26.07,0,0,0-5.74-.69,2.1,2.1,0,0,0-1.54,1.14c-1.43,3.46-2.68,7-4.1,10.46C164.16,223.24,163.13,225.22,162,227.69ZM247.65,233c.49.05.94.14,1.39.14,4.63,0,9.26.12,13.88,0,9.52-.3,13.23-9.38,10.27-16.54-2.57-6.23-9.17-7.73-14.63-7.36-2.35.16-4.72,0-7.08,0h-3.32l-.08.53a12.05,12.05,0,0,0,1.4.46,2.5,2.5,0,0,1,2.19,2.79c0,4.77,0,9.53,0,14.29-.06,4.07-.12,4.07-3.87,5.31C247.74,232.69,247.74,232.78,247.65,233Zm141.18-18.19c.57.51,1.05.86,1.44,1.28,5.18,5.6,10.33,11.21,15.53,16.78a5.74,5.74,0,0,0,1.65.86,7.5,7.5,0,0,0,.45-1.81c-.08-5.42-.2-10.84-.33-16.26,0-.82-.17-1.63-.26-2.45-.15-1.31,0-2.45,1.54-2.84a5.37,5.37,0,0,0,1-.56h-7.82l0,.48,3.64.77v17.06a15.48,15.48,0,0,1-1.32-1.12q-4-4.31-8-8.64c-2-2.16-4-4.31-5.85-6.55-2-2.41-4.39-3-7.81-1.43a7.92,7.92,0,0,1,1.71.49c.75.44,1.75.85,2.06,1.55a8.27,8.27,0,0,1,.42,3.24c0,4.66,0,9.32,0,14,0,2-.39,2.42-2.44,2.83a6.44,6.44,0,0,0-1.13.47l.13.29h9l.07-.58-3.73-.8ZM232.2,228.52a6,6,0,0,1-.79-.55c-4.64-5.17-9.26-10.37-13.93-15.51-1.53-1.68-3-3.7-5.79-2.62-.29.12-.67,0-1,0s-.85.17-1.28.25v.54a4.45,4.45,0,0,1,1.45.26,3.85,3.85,0,0,1,1.73,1.38,7,7,0,0,1,.39,2.76c0,5,0,10.09,0,15.13a2.15,2.15,0,0,1-2.1,2.32,4.74,4.74,0,0,0-1.14.45l.14.23h9l0-.58c-.89-.15-1.78-.36-2.68-.44s-1.56-.49-1.57-1.64c-.06-4.81-.21-9.62-.31-14.43,0-.57.06-1.14.12-2.07,1.28,1.36,2.29,2.42,3.28,3.5,4.74,5.17,9.46,10.35,14.24,15.48.41.45,1.23.52,1.86.77a6,6,0,0,0,.46-1.64c-.08-5.75-.2-11.51-.32-17.26a4,4,0,0,0,0-.49c-.49-3.19-.49-3.19,2.15-4.54h-7.67l0,.45a7.91,7.91,0,0,0,1.69.43c1.61.05,2,.89,1.91,2.36-.09,1.15.14,2.31.15,3.47C232.21,220.46,232.2,224.37,232.2,228.52ZM48.52,25c-3.29,1.77-6.31,3.7-8.13,6.94a12,12,0,0,0,1.25,14.36A78.59,78.59,0,0,0,52.2,56.56C59,62.11,66.39,66.84,72.47,73.22,68,66.85,62.09,62,56.35,56.86c-4.29-3.81-8.64-7.55-11.71-12.5-2.57-4.16-3.63-8.45-.79-12.9C45.24,29.29,46.88,27.28,48.52,25ZM422.17,210l0,.38a3.43,3.43,0,0,0,.58.17c2.72.21,2.84.33,2.84,3.08v15c0,3.44,0,3.44-3.28,4-.06,0-.09.18-.2.39a4.17,4.17,0,0,0,.78.16c6.49,0,13,0,19.48,0a2,2,0,0,0,1.42-1.19c.33-1.62.39-3.29.56-4.95a6.54,6.54,0,0,0-1.69,2.33,4.46,4.46,0,0,1-4.58,2.86c-2.5-.06-5-.11-7.5,0-1.53.08-2-.69-2-1.95,0-2.33,0-4.66,0-7,0-1,.42-1.4,1.4-1.39,1.89,0,3.78,0,5.66,0s2.67.55,3.23,2.42c.14.5.37,1,.69,1.8v-9L439,217a8.22,8.22,0,0,1-.46,1.6c-.31.57-.76,1.48-1.19,1.5-2.86.14-5.73.07-8.74.07,0-2.81-.06-5.41.06-8a1.77,1.77,0,0,1,1.18-1.21c2.59-.22,5.19-.27,7.78-.4a2.47,2.47,0,0,1,2.59,1.64c.42.93.92,1.81,1.39,2.72l.27-.09V210ZM178.62,129.94a14.52,14.52,0,0,0-2.77-.27,10.87,10.87,0,0,0-10,8.73c-1.21,6.06,2.61,10.7,8.83,10.53a10.67,10.67,0,0,0,8.83-5.07c1.36-2.08,2.38-4.44,1.37-7.54a10.88,10.88,0,0,1-4.06,6.26,6.51,6.51,0,0,1-8.44-.43c-2.07-2-1.57-6.23.19-8.19A15,15,0,0,1,178.62,129.94Zm138.13,79.83,0,.48a5.17,5.17,0,0,0,1,.29c2.24.18,2.24.17,2.24,2.38,0,4.27-.09,8.54,0,12.8.11,4.08,1.21,6.35,5.58,7.43a22.81,22.81,0,0,0,5.67.34c2.84,0,6.47-2.06,6.87-5.57a38.73,38.73,0,0,0,.5-4.25c0-3.09-.08-6.19-.34-9.27-.19-2.26.22-3.9,2.74-4.35a1.57,1.57,0,0,0,.06-.39h-7.88a7,7,0,0,0,.86.54c2.36.89,2.56,1.18,2.57,3.75,0,1,0,2,0,3,0,3.3.23,6.62-.1,9.88-.35,3.41-2.89,5.78-8.29,5.35-3.19-.26-5.18-2.38-5.24-6-.09-4.6,0-9.21,0-13.81,0-1.24.59-1.8,1.83-1.8a15.18,15.18,0,0,0,1.76-.24l-.06-.53Zm152.43,5c1-3.15.39-4.67-2-5.39a10.3,10.3,0,0,0-6.8.28,5.69,5.69,0,0,0-2,9.28,30.25,30.25,0,0,0,4,2.9,46.59,46.59,0,0,1,5.22,3.44c1.89,1.68,1.68,3.84-.18,5.45-3.3,2.87-9.13.67-9.91-3a6.71,6.71,0,0,0-.53-1.24,26.22,26.22,0,0,0-.72,3.59c-.3,1.45.11,2.51,1.57,2.77a41,41,0,0,0,6,.72,6.74,6.74,0,0,0,7.06-5.1c.92-3-.05-5.47-3.11-7.43-2.09-1.34-4.31-2.46-6.44-3.73-1.32-.78-2.5-1.8-2.45-3.46a3.46,3.46,0,0,1,2.27-3,5.45,5.45,0,0,1,6.09,1.17A19.7,19.7,0,0,1,469.18,214.74ZM296.49,233.16l.09-.63a11.09,11.09,0,0,0-2.2-.66,1.65,1.65,0,0,1-1.73-1.93c0-2.32,0-4.63,0-6.94,0-1.07.43-1.51,1.49-1.47a32.63,32.63,0,0,0,3.83,0c2.21-.18,4.21-.09,4.72,2.69,0,.06.18.09.68.31-.17-2.73-.33-5.25-.49-7.77a6.35,6.35,0,0,0-.95,1.62c-.37.55-.88,1.34-1.41,1.4-2.54.3-5.12.39-7.86.56,0-2.88,0-5.36,0-7.84,0-1.41.75-1.9,1.94-1.91,2.39,0,4.78,0,7.16,0a2.37,2.37,0,0,1,2.62,2,16,16,0,0,0,.59,1.9l.45-.07v-4.57H286.85l-.07.54a9.56,9.56,0,0,0,1.64.47,1.55,1.55,0,0,1,1.55,1.76c0,5.76,0,11.53,0,17.3,0,1.47-.6,2.57-2.35,2.6a5.6,5.6,0,0,0-1.49.64Zm67.2-22.79,0-.36H352.91a17.07,17.07,0,0,0,2.09.88c.52.28,1.2.89,1.2,1.36.08,6.1.09,12.2,0,18.3,0,.54-.85,1.27-1.47,1.56a11,11,0,0,1-2.61.55l0,.42c.52,0,1,.11,1.56.1,3.26-.1,6.52-.29,9.78-.31,2.43,0,4.85.23,7.28.29.46,0,1.26-.15,1.32-.38.45-1.89.78-3.81,1.14-5.72-4.17,4.77-8,6.07-13.91,4.37,1.09-6.72-.86-13.58.43-20.45ZM198.1,232.86l0-.55a11.35,11.35,0,0,1-1.54-.18c-1.07-.27-2.2-.49-2.2-2,0-6,0-11.95,0-17.93,0-1.07.56-1.58,1.64-1.67a16.89,16.89,0,0,0,2.19-.42l-.1-.37H187.25l0,.49a13.47,13.47,0,0,0,2,.3c1.45,0,2.21.57,2.19,2.19-.06,5.59,0,11.18,0,16.78,0,2.1-.51,2.55-2.63,2.68a8.07,8.07,0,0,0-1.58.38l.12.3Z"/><path class="cls-2" d="M498.68,228.35c-.7,1-1.33,2-2.11,3a6,6,0,0,1-5.15,2.18,62,62,0,0,1-6.22-.72c-1.44-.25-1.91-1.28-1.61-2.74a19.09,19.09,0,0,1,.79-3.64c.22.61.46,1.21.68,1.83,1.1,3.14,6.32,5.22,9.57,2.58,2-1.61,2.23-3.82.3-5.56a41.25,41.25,0,0,0-5.06-3.38,27.74,27.74,0,0,1-3.9-2.73,5.72,5.72,0,0,1,2.57-9.79,11.07,11.07,0,0,1,6.17.06c1.61.45,2.37,1.26,2.17,3a18.9,18.9,0,0,0,0,2.26l-.48.13c-.2-.43-.41-.86-.59-1.3a5.58,5.58,0,0,0-8-2.27c-2.29,1.65-2,4.36.78,6,1.9,1.13,4,2,5.74,3.29a42.08,42.08,0,0,1,4.35,4.21Z"/><path class="cls-2" d="M90.94.33c1.23.85,2.48,1.68,3.69,2.57,5.53,4.05,10.21,8.79,12.31,15.57a24.77,24.77,0,0,1,.63,12.06,5.27,5.27,0,0,0-.06,2,100.26,100.26,0,0,0-1.06-10.28c-1.22-6.08-4.86-10.65-9.86-14.19-1.71-1.21-3.53-2.26-5.23-3.48a2.44,2.44,0,0,0-2.87-.15C84.91,6.4,81.31,8.29,78.05,10c1.88-3.29,5.07-5.84,8.75-7.9,1-.54,1.87-1.19,2.81-1.79Z"/><path class="cls-2" d="M221.35,161.09c-1.28.84-2.45,1.54-3.55,2.34A119.1,119.1,0,0,1,200,174.27c-6.72,3.29-13.6,6-21.16,6.74a20.42,20.42,0,0,1-11-1.49c-5-2.29-7.07-6.54-7.84-11.67-.09-.58-.22-1.15-.39-2-1.83,1.28-3.41,2.42-5,3.51a67.6,67.6,0,0,1-24.91,9.9,92.68,92.68,0,0,1-21.42,1.68c-14.55-.54-28.67-3.17-42.08-9.07-4.14-1.82-8.28-3.65-12.38-5.56a3,3,0,0,0-3.9.66,47.94,47.94,0,0,1-25.46,13.54c-4.66.84-9.41,1.36-14.12.09-10-2.68-12.43-12.76-7.65-20.25,2.21-3.46,5.9-5.09,9.94-5.71a41.06,41.06,0,0,1,17.23,1.12c5.51,1.52,10.92,3.43,16.35,5.27a1.64,1.64,0,0,0,2.21-.72,131.84,131.84,0,0,0,13.11-23.93c5.94-13.95,11.61-28,17.42-42,1.35-3.26,2.78-6.48,4.16-9.73A14.68,14.68,0,0,0,83.55,83c-3,.72-5.72,1.3-8.39,2-10.52,2.86-21.08,5.61-31.52,8.72a46,46,0,0,0-15.58,7.49c-4.83,3.79-8.49,8.45-9.44,14.67-.52,3.41-.37,6.85,2.53,9.52,2.65,2.45,5.87,2.52,9.05,2.07,11.54-1.63,21.29-7.22,30.35-14.21.82-.63,1.56-1.38,2.37-2-6.07,5.73-11.82,10.22-19.29,13.8a41.14,41.14,0,0,1-13.74,4c-3.59.36-6.76-.18-9.62-2.39a10.86,10.86,0,0,1-4.09-8c-.6-6.75,2.07-12.37,6.43-17.34C28.55,94.57,36.3,90.54,44.38,87c13.71-6,28.16-9.53,42.55-13.32a2.8,2.8,0,0,0,1.62-1.3C93,63.61,97.66,55,103.61,47.12c6.27-8.3,13.75-15.22,23.33-19.62a50.51,50.51,0,0,1,15.68-4.41c5.38-.58,10.67-.52,15.85,1.33,6,2.14,9.36,6.61,8.9,12.63a23.94,23.94,0,0,1-5.59,13.55c-6.15,7.45-14.3,12.07-23,15.78-6.08,2.6-12.28,5-18.58,7-7.61,2.4-15.37,4.3-23.09,6.36a2.85,2.85,0,0,0-2.19,1.72c-3.51,8.69-6.92,17.42-10.58,26-3.47,8.18-7,16.35-10.87,24.33-3.29,6.72-7,13.27-10.85,19.69-2.15,3.56-5,6.71-7.52,10-.46.61-.9,1.23-1.53,2.08,1.75.77,3.31,1.52,4.92,2.15,8.88,3.48,17.77,7,27.15,8.88,5.28,1.05,10.64,1.7,16,2.24,11,1.1,21.53-1.08,31.78-4.72,10.67-3.79,20.43-9.42,29.73-15.85a20.67,20.67,0,0,1,2.76-1.45c1-.5,1.56,0,1.45,1-.17,1.69-.62,3.35-.77,5-.6,6.86,2.51,15.1,12.15,15.38,6.85.21,13-2,19.11-4.66a99.88,99.88,0,0,0,21.87-13.51c-.95-3.93-2-7.74-2.76-11.63a88.72,88.72,0,0,1-1.05-21.42,142.25,142.25,0,0,1,2.84-20.91,157,157,0,0,1,8.37-27.29c3.86-9.42,8.27-18.57,14.15-26.92,2.79-3.95,5.92-7.67,9.06-11.35a48,48,0,0,1,14.54-11.83c4.28-2.18,8.74-3.92,13.79-3,3.54.63,5.61,2.78,7,5.87,2.54,5.69,2.56,11.62,2.05,17.69-.85,10.08-3.61,19.69-7,29.15a202.78,202.78,0,0,1-16,34.49,184,184,0,0,1-13.89,20.91c-2.68,3.43-5.54,6.74-8.51,9.91-3.35,3.6-6.9,7-10.43,10.45-1.5,1.45-3.22,2.68-4.73,4.13a2.34,2.34,0,0,0-.64,1.89c3.42,11.39,10.89,18.12,22.77,20.06,7.72,1.26,14.85-.14,21.85-3.31,8.9-4.05,16.73-9.79,24.76-15.23,6.89-4.66,13.56-9.77,21.6-12.37,4.19-1.36,8.51-1.9,12.81-.14,3.08,1.27,4.76,3.73,5.94,6.68-2.32-3-5.05-5.17-9.07-4.53a15.16,15.16,0,0,0-8,4.17c-5.68,5.36-9.75,11.7-11.16,19.48-.86,4.79,1.46,8.39,7,6.83a12.53,12.53,0,0,0,4.27-2.1,41.25,41.25,0,0,0,14.08-19.84c1,2,2,4.1,3.08,6.12a39.12,39.12,0,0,0,10.06,12.38c5.06,4.1,10.44,4.25,16.05,1.41a44.84,44.84,0,0,0,18.46-17.1c3.18-5.24,7-9.78,12.53-12.63,3.9-2,8.07-3,12.21-.66A9.47,9.47,0,0,1,410.7,154c-.32-.44-.62-.9-1-1.32-3.8-4.41-10-3.67-13.86-.48a23.31,23.31,0,0,0-8.45,14.51c-.66,4.11-.18,8.12,3.81,10.47a12.88,12.88,0,0,0,5.93,1.66c7.86.27,15.25-1.94,22.47-4.81a94.44,94.44,0,0,0,23.78-13.59,40.83,40.83,0,0,0,6.23-6c1-1.17,1.19-3,1.52-4.59.29-1.39.17-2.86.41-4.26a4.67,4.67,0,0,1,1-2c1.12-1.35,2.62-1.68,3.61-.77,1.16,1.06.74,2.2.06,3.42-3.73,6.74-9,12.1-15,16.86a97.09,97.09,0,0,1-31.07,16.63A51.85,51.85,0,0,1,398.1,182a19.44,19.44,0,0,1-11-2c-3.67-2-5.25-5.39-6.14-9.2a46,46,0,0,1-.57-5c-1.12,1.25-2.1,2.29-3,3.36-6,6.94-13.19,11.74-22.59,12.81a22.17,22.17,0,0,1-16.48-4.37,24,24,0,0,1-6.15-7.29l-1-1.66c-1.29,1.73-2.35,3.3-3.57,4.74-4.12,4.88-8.95,8.77-15.66,8.8-5.74,0-8.84-3.42-9.88-8.7-1.33-6.73.92-12.71,4.92-18.11.34-.47.64-1,1-1.45l-.33-.37c-1.32.89-2.66,1.76-4,2.67-7.73,5.38-15.33,11-23.24,16.07a54.4,54.4,0,0,1-18.61,8.06c-11.22,2.25-21.66.28-30.81-6.73a29.48,29.48,0,0,1-8.36-10.19C222.24,162.74,221.87,162.07,221.35,161.09Zm4.16-7.79c.76-.64,1.19-1,1.57-1.31A204.82,204.82,0,0,0,245,132.47a194.58,194.58,0,0,0,20.54-32.13,206.71,206.71,0,0,0,9.17-20.72,163.81,163.81,0,0,0,5.53-18.49,98.39,98.39,0,0,0,1.8-11.88c.58-4.57.22-9.1-2-13.17-1.53-2.75-3.77-4.19-7.15-3.37a19.44,19.44,0,0,0-8.7,5.14c-7.59,7.06-12.9,15.78-17.74,24.79a191.34,191.34,0,0,0-12.06,27.58c-4.54,13-8,26.29-9.4,40.08a102.21,102.21,0,0,0-.26,18.51C224.84,150.16,225.18,151.49,225.51,153.3ZM100.08,70.13a2.42,2.42,0,0,0,.62.21,4.61,4.61,0,0,0,.81-.15c15-3.74,30.15-7.11,44.38-13.45,6.57-2.94,12.59-6.63,17.09-12.44,3.52-4.56,3.64-9.26-.19-13.45-2.88-3.15-6.86-4.39-11-4.68A35.14,35.14,0,0,0,133,30.42,60.45,60.45,0,0,0,113.67,46.8a102.35,102.35,0,0,0-12.6,20.75C100.69,68.37,100.42,69.25,100.08,70.13ZM46.53,163.28a23.37,23.37,0,0,0-2.36-1c-4.78-1.25-9.54-2.66-14.37-3.67a33.42,33.42,0,0,0-15.9.4c-4.15,1.14-7.53,3.31-9.34,7.46-2.26,5.18.84,12.36,6.32,13.55a28.24,28.24,0,0,0,12.61-.29,33.77,33.77,0,0,0,15-8.1C41.25,169.13,43.68,166.26,46.53,163.28Z"/><path class="cls-2" d="M81.16,69.44c-2.9-3.38-5.69-6.86-8.73-10.11-5.61-6-11.65-11.63-16.21-18.56a25.21,25.21,0,0,1-4.39-12.48c-.29-5.08,1.67-9.56,4.78-13.42a68.32,68.32,0,0,1,7-7,2.58,2.58,0,0,1,2.22-.35C76.3,11.42,85.28,17.3,91,27.23a28.29,28.29,0,0,1,3.82,13.71c0,2.1,0,4.19-.12,6.32C94,29.35,83.41,19,68.13,12.22c-3.39,2.59-6.58,5.25-8.83,8.91-3.11,5-3.06,10.16-.9,15.48,2,4.92,5.19,9.06,8.36,13.23C71,55.39,75.25,60.93,79.43,66.53A19.28,19.28,0,0,1,81,69.75Z"/><path class="cls-2" d="M162,227.69c1.15-2.47,2.18-4.45,3-6.5,1.42-3.47,2.67-7,4.1-10.46a2.1,2.1,0,0,1,1.54-1.14,26.07,26.07,0,0,1,5.74.69,15,15,0,0,1-2.54.57c-1,.05-1.44.41-1.49,1.36-.08,1.54-.27,3.08-.25,4.62,0,4.14.22,8.28.3,12.43.05,2.4,0,2.39,2.44,3a2.49,2.49,0,0,1,1.33.74H166l-.1-.3,1.85-.57c.89-.26,1.65-.64,1.64-1.75q0-8,0-16c0-.09-.1-.18-.39-.66-1.46,3.43-2.85,6.61-4.17,9.82s-2.55,6.37-3.9,9.73L152.1,213l-.52.15c-.17,1.83-.44,3.65-.48,5.48-.07,3.6,0,7.2,0,10.81,0,2.36.32,2.64,2.6,2.79a2.93,2.93,0,0,1,1.82.79H146l-.12-.29c.4-.17.81-.51,1.19-.48,1.88.16,2.25-1.08,2.33-2.48.17-2.76.21-5.52.36-8.27.18-3,.36-6,.66-9.06.14-1.42-.63-1.7-1.71-1.84-.72-.09-1.42-.22-2.13-.33l0-.57c2.21,0,4.42-.05,6.62,0,.31,0,.67.67.86,1.09,2.25,4.92,4.46,9.85,6.7,14.77C161,226.13,161.39,226.66,162,227.69Z"/><path class="cls-2" d="M247.65,233c.09-.26.09-.35.12-.36,3.75-1.24,3.81-1.24,3.87-5.31.07-4.76,0-9.52,0-14.29a2.5,2.5,0,0,0-2.19-2.79,12.05,12.05,0,0,1-1.4-.46l.08-.53h3.32c2.36,0,4.73.12,7.08,0,5.46-.37,12.06,1.13,14.63,7.36,3,7.16-.75,16.24-10.27,16.54-4.62.14-9.25,0-13.88,0C248.59,233.18,248.14,233.09,247.65,233Zm7-13c0,2.71,0,5.43,0,8.14,0,2.31.94,3.38,3.14,4a9.1,9.1,0,0,0,7.43-1.26,10,10,0,0,0,5.1-9.69c-.24-4.36-1.86-7.74-6-9.41a21.71,21.71,0,0,0-6.68-1.53c-2.86-.17-3,.21-3,3.12Z"/><path class="cls-2" d="M388.83,214.85v17l3.73.8-.07.58h-9l-.13-.29a6.44,6.44,0,0,1,1.13-.47c2.05-.41,2.44-.82,2.44-2.83,0-4.65,0-9.31,0-14a8.27,8.27,0,0,0-.42-3.24c-.31-.7-1.31-1.11-2.06-1.55a7.92,7.92,0,0,0-1.71-.49c3.42-1.55,5.78-1,7.81,1.43,1.88,2.24,3.87,4.39,5.85,6.55q4,4.33,8,8.64a15.48,15.48,0,0,0,1.32,1.12V211.1l-3.64-.77,0-.48h7.82a5.37,5.37,0,0,1-1,.56c-1.58.39-1.69,1.53-1.54,2.84.09.82.24,1.63.26,2.45.13,5.42.25,10.84.33,16.26a7.5,7.5,0,0,1-.45,1.81,5.74,5.74,0,0,1-1.65-.86c-5.2-5.57-10.35-11.18-15.53-16.78C389.88,215.71,389.4,215.36,388.83,214.85Z"/><path class="cls-2" d="M232.2,228.52c0-4.15,0-8.06,0-12,0-1.16-.24-2.32-.15-3.47.11-1.47-.3-2.31-1.91-2.36a7.91,7.91,0,0,1-1.69-.43l0-.45h7.67c-2.64,1.35-2.64,1.35-2.15,4.54a4,4,0,0,1,0,.49c.12,5.75.24,11.51.32,17.26a6,6,0,0,1-.46,1.64c-.63-.25-1.45-.32-1.86-.77-4.78-5.13-9.5-10.31-14.24-15.48-1-1.08-2-2.14-3.28-3.5-.06.93-.13,1.5-.12,2.07.1,4.81.25,9.62.31,14.43,0,1.15.52,1.55,1.57,1.64s1.79.29,2.68.44l0,.58h-9l-.14-.23a4.74,4.74,0,0,1,1.14-.45,2.15,2.15,0,0,0,2.1-2.32c0-5,0-10.09,0-15.13a7,7,0,0,0-.39-2.76,3.85,3.85,0,0,0-1.73-1.38,4.45,4.45,0,0,0-1.45-.26v-.54c.43-.08.85-.2,1.28-.25s.7.09,1,0c2.82-1.08,4.26.94,5.79,2.62,4.67,5.14,9.29,10.34,13.93,15.51A6,6,0,0,0,232.2,228.52Z"/><path class="cls-2" d="M48.52,25c-1.64,2.25-3.28,4.26-4.67,6.43-2.84,4.45-1.78,8.74.79,12.9,3.07,5,7.42,8.69,11.71,12.5C62.09,62,68,66.85,72.47,73.22,66.39,66.84,59,62.11,52.2,56.56A78.59,78.59,0,0,1,41.64,46.33,12,12,0,0,1,40.39,32C42.21,28.73,45.23,26.8,48.52,25Z"/><path class="cls-2" d="M422.17,210h19.69v4.82l-.27.09c-.47-.91-1-1.79-1.39-2.72a2.47,2.47,0,0,0-2.59-1.64c-2.59.13-5.19.18-7.78.4a1.77,1.77,0,0,0-1.18,1.21c-.12,2.59-.06,5.19-.06,8,3,0,5.88.07,8.74-.07.43,0,.88-.93,1.19-1.5A8.22,8.22,0,0,0,439,217l.57.07v9c-.32-.83-.55-1.3-.69-1.8-.56-1.87-1.26-2.41-3.23-2.42s-3.77,0-5.66,0c-1,0-1.41.4-1.4,1.39,0,2.33,0,4.66,0,7,0,1.26.43,2,2,1.95,2.5-.12,5-.07,7.5,0a4.46,4.46,0,0,0,4.58-2.86,6.54,6.54,0,0,1,1.69-2.33c-.17,1.66-.23,3.33-.56,4.95a2,2,0,0,1-1.42,1.19c-6.49.08-13,.05-19.48,0a4.17,4.17,0,0,1-.78-.16c.11-.21.14-.38.2-.39,3.28-.58,3.28-.58,3.28-4v-15c0-2.75-.12-2.87-2.84-3.08a3.43,3.43,0,0,1-.58-.17Z"/><path class="cls-2" d="M178.62,129.94a15,15,0,0,0-6,4c-1.76,2-2.26,6.22-.19,8.19a6.51,6.51,0,0,0,8.44.43,10.88,10.88,0,0,0,4.06-6.26c1,3.1,0,5.46-1.37,7.54a10.67,10.67,0,0,1-8.83,5.07c-6.22.17-10-4.47-8.83-10.53a10.87,10.87,0,0,1,10-8.73A14.52,14.52,0,0,1,178.62,129.94Z"/><path class="cls-2" d="M316.75,209.77h9.75l.06.53a15.18,15.18,0,0,1-1.76.24c-1.24,0-1.83.56-1.83,1.8,0,4.6-.06,9.21,0,13.81.06,3.64,2.05,5.76,5.24,6,5.4.43,7.94-1.94,8.29-5.35.33-3.26.09-6.58.1-9.88,0-1,0-2,0-3,0-2.57-.21-2.86-2.57-3.75a7,7,0,0,1-.86-.54h7.88a1.57,1.57,0,0,1-.06.39c-2.52.45-2.93,2.09-2.74,4.35.26,3.08.33,6.18.34,9.27a38.73,38.73,0,0,1-.5,4.25c-.4,3.51-4,5.53-6.87,5.57a22.81,22.81,0,0,1-5.67-.34c-4.37-1.08-5.47-3.35-5.58-7.43-.12-4.26,0-8.53,0-12.8,0-2.21,0-2.2-2.24-2.38a5.17,5.17,0,0,1-1-.29Z"/><path class="cls-2" d="M469.18,214.74a19.7,19.7,0,0,0-1.87-2.82,5.45,5.45,0,0,0-6.09-1.17,3.46,3.46,0,0,0-2.27,3c-.05,1.66,1.13,2.68,2.45,3.46,2.13,1.27,4.35,2.39,6.44,3.73,3.06,2,4,4.44,3.11,7.43a6.74,6.74,0,0,1-7.06,5.1,41,41,0,0,1-6-.72c-1.46-.26-1.87-1.32-1.57-2.77a26.22,26.22,0,0,1,.72-3.59,6.71,6.71,0,0,1,.53,1.24c.78,3.72,6.61,5.92,9.91,3,1.86-1.61,2.07-3.77.18-5.45a46.59,46.59,0,0,0-5.22-3.44,30.25,30.25,0,0,1-4-2.9,5.69,5.69,0,0,1,2-9.28,10.3,10.3,0,0,1,6.8-.28C469.57,210.07,470.19,211.59,469.18,214.74Z"/><path class="cls-2" d="M296.49,233.16H286.11a5.6,5.6,0,0,1,1.49-.64c1.75,0,2.34-1.13,2.35-2.6,0-5.77,0-11.54,0-17.3a1.55,1.55,0,0,0-1.55-1.76,9.56,9.56,0,0,1-1.64-.47l.07-.54H305.4v4.57l-.45.07a16,16,0,0,1-.59-1.9,2.37,2.37,0,0,0-2.62-2c-2.38,0-4.77,0-7.16,0-1.19,0-2,.5-1.94,1.91.06,2.48,0,5,0,7.84,2.74-.17,5.32-.26,7.86-.56.53-.06,1-.85,1.41-1.4a6.35,6.35,0,0,1,.95-1.62c.16,2.52.32,5,.49,7.77-.5-.22-.67-.25-.68-.31-.51-2.78-2.51-2.87-4.72-2.69a32.63,32.63,0,0,1-3.83,0c-1.06,0-1.51.4-1.49,1.47,0,2.31,0,4.62,0,6.94a1.65,1.65,0,0,0,1.73,1.93,11.09,11.09,0,0,1,2.2.66Z"/><path class="cls-2" d="M363.69,210.37l-3.95.61c-1.29,6.87.66,13.73-.43,20.45,6,1.7,9.74.4,13.91-4.37-.36,1.91-.69,3.83-1.14,5.72-.06.23-.86.4-1.32.38-2.43-.06-4.85-.3-7.28-.29-3.26,0-6.52.21-9.78.31-.52,0-1-.06-1.56-.1l0-.42a11,11,0,0,0,2.61-.55c.62-.29,1.46-1,1.47-1.56.1-6.1.09-12.2,0-18.3,0-.47-.68-1.08-1.2-1.36a17.07,17.07,0,0,1-2.09-.88h10.75Z"/><path class="cls-2" d="M198.1,232.86H187.27l-.12-.3a8.07,8.07,0,0,1,1.58-.38c2.12-.13,2.62-.58,2.63-2.68,0-5.6,0-11.19,0-16.78,0-1.62-.74-2.15-2.19-2.19a13.47,13.47,0,0,1-2-.3l0-.49h10.87l.1.37a16.89,16.89,0,0,1-2.19.42c-1.08.09-1.64.6-1.64,1.67,0,6,0,12,0,17.93,0,1.51,1.13,1.73,2.2,2a11.35,11.35,0,0,0,1.54.18Z"/><path class="cls-1" d="M225.51,153.3c-.33-1.81-.67-3.14-.79-4.49A102.21,102.21,0,0,1,225,130.3c1.36-13.79,4.86-27.06,9.4-40.08a191.34,191.34,0,0,1,12.06-27.58c4.84-9,10.15-17.73,17.74-24.79a19.44,19.44,0,0,1,8.7-5.14c3.38-.82,5.62.62,7.15,3.37,2.26,4.07,2.62,8.6,2,13.17a98.39,98.39,0,0,1-1.8,11.88,163.81,163.81,0,0,1-5.53,18.49,206.71,206.71,0,0,1-9.17,20.72A194.58,194.58,0,0,1,245,132.47,204.82,204.82,0,0,1,227.08,152C226.7,152.35,226.27,152.66,225.51,153.3Z"/><path class="cls-1" d="M100.08,70.13c.34-.88.61-1.76,1-2.58a102.35,102.35,0,0,1,12.6-20.75A60.45,60.45,0,0,1,133,30.42a35.14,35.14,0,0,1,18.82-4.25c4.16.29,8.14,1.53,11,4.68,3.83,4.19,3.71,8.89.19,13.45-4.5,5.81-10.52,9.5-17.09,12.44-14.23,6.34-29.36,9.71-44.38,13.45a4.61,4.61,0,0,1-.81.15A2.42,2.42,0,0,1,100.08,70.13Z"/><path class="cls-1" d="M46.53,163.28c-2.85,3-5.28,5.85-8.06,8.34a33.77,33.77,0,0,1-15,8.1,28.24,28.24,0,0,1-12.61.29c-5.48-1.19-8.58-8.37-6.32-13.55,1.81-4.15,5.19-6.32,9.34-7.46a33.42,33.42,0,0,1,15.9-.4c4.83,1,9.59,2.42,14.37,3.67A23.37,23.37,0,0,1,46.53,163.28Z"/><path class="cls-1" d="M254.68,220.06v-6.64c0-2.91.16-3.29,3-3.12a21.71,21.71,0,0,1,6.68,1.53c4.12,1.67,5.74,5,6,9.41a10,10,0,0,1-5.1,9.69,9.1,9.1,0,0,1-7.43,1.26c-2.2-.61-3.12-1.68-3.14-4C254.66,225.49,254.68,222.77,254.68,220.06Z"/></svg>