<svg id="Layer_1" data-name="Layer 1" xmlns="http://www.w3.org/2000/svg" viewBox="0 0 103.7 112.44"><path d="M35,25.71a68.77,68.77,0,0,0,7.63,8.72c1.34,1.37,2.67,2.73,3.92,4.16a25.4,25.4,0,0,1,3.34,4.62,22,22,0,0,0-2.82-5c-1.13-1.56-2.35-3.06-3.58-4.53-.25-.3-.51-.6-.76-.91a58.58,58.58,0,0,1-5.76-8A16.9,16.9,0,0,1,35,19.84a9.27,9.27,0,0,1,.33-4.91A12.83,12.83,0,0,1,38,10.67,26.1,26.1,0,0,1,41.8,7.31a40.65,40.65,0,0,1,4.83,2.47A27.54,27.54,0,0,1,49.83,12,22.66,22.66,0,0,1,55,17.84a20.73,20.73,0,0,1,1.71,3.55,24.35,24.35,0,0,1,1.42,7.86,20.9,20.9,0,0,0-.46-8.17,19.91,19.91,0,0,0-3.76-7.42,25.26,25.26,0,0,0-2.88-3.06,31.38,31.38,0,0,0-3.33-2.53,38.36,38.36,0,0,0-7.43-3.75l-.57-.22-.12.1h0l0,0-.34.27a25.54,25.54,0,0,0-4.3,4.15,14.66,14.66,0,0,0-2.82,5.48,11.64,11.64,0,0,0,.2,6.2A19.28,19.28,0,0,0,35,25.71Z"/><path d="M25.61,28.64a28.52,28.52,0,0,0,3.47,3.63c2.44,2.19,5.06,4.08,7.61,6a49.84,49.84,0,0,1,7.25,6.26l.69.69a4.88,4.88,0,0,0-.52-.83,46.22,46.22,0,0,0-6.72-7C35,35.31,32.51,33.25,30.32,31a21.73,21.73,0,0,1-2.89-3.6,10.14,10.14,0,0,1-1.57-3.89,2.12,2.12,0,0,1-.05-.5c0-.16,0-.33,0-.5a7,7,0,0,1,.15-1l.11-.51c0-.17.13-.33.18-.5l.2-.5.25-.49a21.36,21.36,0,0,1,2.55-3.57,7.09,7.09,0,0,1,.73-.74l-1,.51a12,12,0,0,0-3.61,2.93l-.4.52a6.59,6.59,0,0,0-.34.57c-.11.2-.24.38-.33.59l-.25.64-.13.32-.08.34-.14.69c0,.23,0,.46-.06.7a4.09,4.09,0,0,0,0,.7A9.32,9.32,0,0,0,25.61,28.64Z"/><path d="M48.16,6.06a22.15,22.15,0,0,1,3.68-2.34c1.15-.57,2.33-1.08,3.53-1.57,1.4.89,2.82,1.71,4.14,2.67a16.89,16.89,0,0,1,3.76,3.74,14.3,14.3,0,0,1,2.23,4.83A19.25,19.25,0,0,1,66,18.6c0,.88-.14,1.81-.14,1.81a29.25,29.25,0,0,0,.5-2.9,18,18,0,0,0-.09-4.27,14.26,14.26,0,0,0-2-5.36,19.23,19.23,0,0,0-3.73-4.36A21.51,21.51,0,0,0,55.94.24L55.46,0l-.39.2a23.84,23.84,0,0,0-4,2.37,12.66,12.66,0,0,0-2.8,2.86L48,6h0c-.11.19-.24.39-.35.56Z"/><path d="M103.12,95.89a.83.83,0,0,0-.1-.29.41.41,0,0,0-.28-.23,0,0,0,0,1,0,0h0c-.43-.1-1.26.24-2.51,1.19-26.8,18.35-44.47,13.87-66.89,4.54l.06-.07c10.94-12.14,22.68-41.2,26.07-50.5h0c18.75-4.59,36.83-10.3,42.25-20.31h0c1.77-2.93,3.27-7.85.4-12a5.76,5.76,0,0,0-.35-.51h0l-.08-.08a5.25,5.25,0,0,0-.72-.77c-5.13-4.88-18-3.81-27,2.22l-.21.14-.59.39h0c-7.91,5.44-13.88,14.81-19,25.55-3.66.93-7.33,1.85-11,2.86-4.51,1.34-9,2.65-13.47,4.44A55.59,55.59,0,0,0,18.3,58.34h0c-.4.28-.78.55-1.14.83l-.13.1-.22.19c-10.65,8.47-8.28,20.14,0,20.14.45,0,.91,0,1.37-.07h0C25.78,78.9,33.46,73.4,38.05,69l.06-.06.73-.71A48.72,48.72,0,0,1,22,77.33l-.47.12a20.74,20.74,0,0,1-2.67.51c-6,.56-8.17-3.49-6.06-9.21,4.3-10.33,24.42-13,38-16.19-7.23,16.78-13.19,35.31-21.71,47C7.4,90.63,0,96.32,0,103.9a7.64,7.64,0,0,0,2.36,5.36h0a8.15,8.15,0,0,0,2.52,1.61h0a12.2,12.2,0,0,0,6,1H11a30.34,30.34,0,0,0,20.78-9h0c11.7,6.15,38.72,13.72,56.86,6.94l.12,0c3.23-1,9.53-4.21,12.84-9.83.12-.2.24-.4.34-.6l0,0h0A7.16,7.16,0,0,0,103.12,95.89ZM85.88,17.37c10.13-3.19,16.51,2.2,16,6.57a6,6,0,0,1-.42,1.39l-.18.35c-.11.2-.22.41-.35.61s-.28.45-.44.66a18.19,18.19,0,0,1-4.78,4.6,50.82,50.82,0,0,1-12.2,5.78c-4.33,1.45-8.74,2.75-13.23,3.86-2.56.66-5.14,1.3-7.72,1.93C67.5,32.89,75.8,20.54,85.88,17.37ZM19.69,108.61a21,21,0,0,1-2.32,1.17h0l-.1,0a18.94,18.94,0,0,1-4.6,1.3c-6,.81-10.85-2.09-9.77-7.2,1.42-6.7,13.6-7.5,25.09-2.84A30.29,30.29,0,0,1,19.69,108.61Z"/></svg>