<svg xmlns="http://www.w3.org/2000/svg" width="1043.017" height="1003.544" viewBox="0 0 1043.017 1003.544">
  <g id="Group_196" data-name="Group 196" transform="translate(-494.983 -113.983)">
    <rect id="Rectangle_526" data-name="Rectangle 526" width="611" height="735" transform="translate(495 114)" fill="rgba(255,247,242,0.52)"/>
    <g id="Hero_2" data-name="Hero 2" transform="translate(1016.492 615.755)">
      <path id="Path_8355" data-name="Path 8355" d="M754.531,726.3l98.615,94.735H811.131ZM524.118,807.385,678.931,651.9l68.107,66.9,61.016,102.228H532.681ZM190,631.7h48.973l18.465,18.2L190,718.136Zm329.163,0h87.777v89.115l-84.164,84.3-55.663-92.326.937.535Zm90.453,0h48.973l18.465,18.331L609.62,718.27ZM116.277,605.07v23.951H101.291Zm419.481,0v23.951H520.773Zm-416.805-3.078,16.86,27.163h-16.86Zm419.481-.535,16.993,27.7h-16.86ZM188.4,582.056l47.769,46.966h-94.6Zm419.481,0,47.769,46.966h-94.6ZM259.851,600.521l12.043-20.071h55.529V713.587ZM691.509,580.45h55.529V713.587L677.861,597.979l2.275,1.338ZM749.714,717.6V580.45h68.91V783.969Zm-347.9-113.2V580.316H525.054v-1.2l10.838,17.8v2.944L466.18,711.044ZM84.3,546.329l31.98,51.248v2.409L48.3,708.5,0,631.029Zm279.119,0,19,31.578H331.7Zm419.481,0,19,31.578H751.32Zm-592.76,33.987,33.987-33.987,32.381,54.191v.268l.535.268,64.9,108.65-81.755-80.284v-.268h-.268Zm419.481,0,33.987-33.987,97.678,163.377-81.755-80.284v-.268h-.268ZM86.3,544.322l30.106-30.106v78.41Zm420.151-.535,29.437-29.571v77.741Zm-280.19.535,32.381-32.381,32.247,32.113-32.649,53.79Zm419.481,0,32.381-32.381,32.247,32.113-32.515,53.924Zm-176.356-55.8,54.727,89.382H469.391Zm-141.834,0v89.382H273.5Zm419.481,0v89.382H693.115Zm-554.625-.669h42.015l22.212,22.212-31.846,31.846Zm45.762,0h86.572L292.232,541.78Zm91.925,0h88.446L330.1,575.767Zm35.325,56.6,57-56.6h44.156v90.051H385.629Zm246.47-56.6h42.015l22.212,22.212-31.712,31.846Zm45.762,0h86.572L711.714,541.78Zm91.925,0h88.446l-88.446,87.91Zm35.325,56.6,57-56.6h45.226l54.86,89.918H805.244Zm85.234-84.565,15.388,25.289H844.717Zm-418.812-.669,15.388,25.022v.937h-41.48ZM118.953,596.908V511.54l52.853-52.987,17.261,28.768v.535h.268l33.585,56.065-84.3,84.432Zm419.481-.535V511.54l52.853-52.987,17.261,28.768v.535h.268L642.4,543.921l-84.3,84.432ZM469.257,483.441V444.236L535.625,510.6,504.85,541.512ZM32.381,458.018,47.9,442.362,116.144,510.6,84.833,542.048Zm141.3-1.472L188.4,441.827l43.353,43.219H190.807Zm419.481,0,14.719-14.719,43.353,43.219H610.422ZM50.579,441.292h65.7v65.832Zm68.509,0h66.234l-66.368,66.5Zm72.657,0h23.684L206.6,456.144Zm16.726,16.726,10.035-16.726h81.22l26.627,43.755H235.5Zm261.59-16.726h65.833v65.832Zm68.509,0H604.8l-66.234,66.5Zm72.657,0h23.684l-8.831,14.852Zm16.726,16.726,10.035-16.726H719.34l26.627,43.755H655.114Zm121.094,27.029,26.494-43.755h83.495l9.768,16.191-27.832,27.7H749.045Zm-419.482,0,26.36-43.755h84.164v-.4l9.768,15.923-28.5,28.367H329.564ZM312.7,457.215l76.938-76.938L328.092,482.37Zm419.481,0,76.938-76.938L747.573,482.37ZM258.781,373.854l39.339,64.628H220.111Zm419.482,0L717.6,438.482H639.592Zm279.119-.8v65.431H891.549Zm-140.5-.669h.134l40.276,66.1h-80.15Zm-419.482,0,.535-.535,40.811,66.635h-81.22Zm-279.387-.937,67.037,67.037H51.649Zm419.481,0,67.037,67.037H471.264Zm-416.136-.4h65.966v65.7Zm138.891.134H394.861L311.233,454.94Zm140.229-.134h65.966v68.241h0v1.606h0v38.135Zm68.642,0h64.9l-64.9,65.431Zm71.72,0h65.833v65.7Zm138.891.134H814.477L730.714,454.94Zm139.56-.134H955.508l-67.84,67.3H860.506ZM328.226,301.866l66.5,66.635H328.36Zm419.482,0,66.234,66.5H747.975ZM122.834,366.9l64.494-65.163V368.5H121.763Zm419.481,0,64.495-65.03v66.769H541.245ZM216.9,299.993h82.96l-41.078,68.642h-.134Zm139.961,0H466.18L398.474,367.7Zm112.4.669-.669-.669H579.647l-39.339,65.163-3.345,3.345H401.418Zm167.257-.669h82.96L678.4,368.5h-.134ZM311.9,285.408l13.916,13.916V368.5H261.992Zm419.481,0,13.916,14.05v69.178H681.607Zm18.064,14.317,14.585-14.585,45.494,74.8Zm-419.481,0,14.719-14.852,47.1,76.8ZM190,299.056l14.451-14.585,52.72,86.84-40.276,67.3H190Zm419.481,0,14.451-14.585,52.719,86.84-40.276,67.3H609.486ZM313.24,283.133l12.444-20.874v33.318Zm419.481,0L745.3,262.26v33.318ZM187.328,259.985v38l-58.607,59.142Zm419.482,0v38L548.2,357.128ZM346.557,283l25.289-25.423H425.1l38.938,39.74H355.255Zm82.291-25.423H605.2l-23.951,39.74H467.785Zm180.638,0h37.332L609.486,295.31Zm16.458,24.888L650.7,257.576h52.987l25.824,25.958-8.43,14.05v-.268H634.909ZM817.554,368.1,765.9,283.267l25.557-25.557h53.255l41.212,42.015Zm30.909-110.524h79.748l-40.276,40.276Zm83.495,0h25.557V368.5H821.033Zm28.233,0h23.951l42.684,42.952-66.769,66.1ZM190,255.971h39.071L190,295.31ZM206.462,282.6l26.092-26.36-.268-.268H282.33l27.43,27.564-8.43,14.05v-.268h-85.9Zm192.279-52.05L422.559,254.9H374.523Zm419.481,0L842.04,254.9h-47.9ZM224.66,198.033l54.994,55.262H191.342Zm419.481,0L700.875,254.9H609.887ZM187.328,162.039v91.256H97.143Zm419.482,0v92.727H515.019Zm141.165-.937,34.254,34.522-34.254,57Zm-419.482-.134,34.121,34.522L328.36,252.626Zm491.737,67.84,67.706-67.973,93.53,94.2H845.787Zm-548.2-68.375h53.79v88.446Zm59.677,0h52.05l-19.669,32.782Zm85.5,8.3v-8.3h47.769l-32.916,33.05Zm-16.592,60.079,68.107-68.375h56.065l-56.734,94.6H426.306Zm290.894-68.375H745.3v88.446Zm59.544,0h52.184l-19.669,32.782ZM116.277,147.053v82.826h.268L93.263,253.295H52.586Zm419.481,0v82.826h.268L511.139,254.9H471.131ZM226.132,195.624l31.98-52.987,67.572,111.326v3.078l-14.451,24.085Zm419.482,0,31.98-52.987L745.3,253.964v3.078l-14.451,24.085ZM328.36,257.71,397.939,141.7l32.113,53.656L328.493,297.317Zm419.482,0L817.42,141.7l32.113,53.656L747.975,297.451ZM538.569,142.5l18.6-30.909,48.17,48.3-66.769,67.438Zm-419.481,0,18.6-30.909,48.17,48.3-66.9,67.438ZM190,159.229l48.438-48.973,18.064,29.839L190,250.351Zm419.481,0,48.438-48.973,18.064,29.839-66.5,110.256ZM417.207,109.186l48.17,48.572h-48.17Zm419.481,59.544V109.186l49.241,49.642-34.522,34.656ZM118.953,92.861l16.592,16.726-16.592,27.7Zm416.805,0V141.7l-9.634,15.923H471.4Zm2.676,0,16.592,16.726-16.592,27.7Zm-422.158-.937V141.7l-9.634,15.923h-56.2Zm264.668,16.191,17.8-17.529,15.789,15.923v57.67Zm278.985.268,17.8-18.064,66.9,67.438H691.241V159.9Zm-419.481,0,18.064-18.2,66.769,67.572h-54.86ZM190,88.847h65.966L190,155.482Zm70.917,0h64.762v65.565Zm348.564,0h65.966l-65.966,66.635Zm70.516,0h65.3v65.7Zm67.973,68.375V88.847h37.867l30.106,50.311-11.106,18.6H748.376Zm40.945-68.375h27.3l-17.127,16.86Zm11.507,19.268,19.4-19.268h14.05V164.18Zm-399.812-19.4,13.916-13.782v27.7Zm-72.121,68.375V25.423l67.973,113.735-11.106,18.6h-56.2Zm88.713-51.649V72.255l50.712-50.311L535.357,89.65l-67.037,67.3Zm192.279-83.9,64.093,64.494H609.486ZM539.1,89.65l67.84-68.107V157.623ZM190,20.874l64.494,65.3H190ZM119.087,89.115l68.241-68.241v136.75ZM624.606,0l-15.12,15.12V2.007H606.81V17.8L538.569,86.439V0h-2.676V86.439l-66.1-66.368L490,0h-3.747L467.785,18.2h0l-1.873,1.873h0L398.742,86.706h0l-1.873,1.873h0l-17.261,17.127L328.36,20.2V0h-2.676V86.171H258.245L190.54,17.662,208.2,0h-3.747l-85.5,85.368V0h-2.676V86.439L30.24,0H26.36l88.847,89.115L0,204.455V208.2l47.9-47.9h57.269l-55.663,93H0v2.676H186.659l-25.022,41.346H0v2.676H160.032l-39.339,65.163-3.345,3.345H0v2.676H114.672L47.9,438.616h-.669v.669L0,486.92v3.747l30.508-30.775,52.318,84.03L0,627.282v8.831l46.163,73.995,1.873-1.2L31.444,735.4h3.211l65.03-103.7h87.643v89.115L172.877,735.4h3.747l82.692-83.629,68.107,66.9,9.9,16.592H340.4l-5.486-9.1,9.366,9.1h3.88L330.1,717.6V580.45h68.91V735.4h2.676V609.753L520.773,807.117l1.338,2.275,7.359,11.775H359.8v2.676H855.956l187.061,179.7V999.8L821.3,786.645V609.753l221.716,367.431v-5.219L821.3,604.535V580.45H943.6l99.284,161.5v-5.218L862.111,441.292h180.906v-2.676h-82.96V370.509l68.509-68.107,14.317,14.451v-3.747l-82.96-83.629,82.96-82.96v-3.747L958.05,227.6,836.688,105.439V88.847h206.329V86.171H677.459l-67.3-67.84L628.352,0Z" transform="translate(-521.508 -501.772)" fill="#fff5ee"/>
    </g>
  </g>
</svg>
